<svg 
 xmlns="http://www.w3.org/2000/svg"
 xmlns:xlink="http://www.w3.org/1999/xlink"
 width="111px" height="51px">
<path fill-rule="evenodd"  fill="rgb(185, 165, 141)"
 d="M97.724,35.169 C90.683,35.169 84.953,29.452 84.953,22.424 C84.953,15.396 90.683,9.678 97.724,9.678 C104.765,9.678 110.494,15.396 110.494,22.424 C110.494,29.452 104.765,35.169 97.724,35.169 ZM97.724,12.291 C92.126,12.291 87.570,16.836 87.570,22.424 C87.570,28.012 92.126,32.557 97.724,32.557 C103.322,32.557 107.877,28.012 107.877,22.424 C107.877,16.836 103.322,12.291 97.724,12.291 ZM70.592,36.302 C70.505,36.303 70.418,36.303 70.332,36.303 C63.929,36.303 60.753,32.853 59.262,29.937 C57.672,26.826 57.542,23.590 57.541,23.457 L57.541,10.005 L60.156,10.005 L60.156,23.457 C60.164,23.874 60.591,33.691 70.341,33.691 C70.411,33.691 70.483,33.691 70.554,33.690 C80.559,33.546 80.500,23.880 80.494,23.457 L80.494,10.005 L83.108,10.005 L83.108,23.457 C83.172,27.918 80.667,36.157 70.592,36.302 ZM53.080,21.551 C53.079,21.130 52.954,11.259 42.994,11.259 C32.987,11.259 32.872,21.127 32.872,21.547 L32.746,31.563 L32.746,35.175 L30.129,35.175 L30.129,0.444 L32.746,0.444 L32.746,13.575 C34.660,10.839 37.861,8.647 42.994,8.647 C53.070,8.647 55.697,17.085 55.697,21.547 L55.697,35.175 L53.080,35.175 L53.080,21.551 ZM25.668,17.958 C25.666,17.458 25.501,5.644 14.581,5.644 C3.660,5.644 3.494,17.458 3.493,17.960 L3.493,35.175 L0.876,35.175 L0.876,17.958 C0.876,12.796 3.740,3.032 14.581,3.032 C25.421,3.032 28.285,12.796 28.285,17.958 L28.285,35.175 L25.668,35.175 L25.668,17.958 ZM13.517,20.145 C14.104,19.559 15.057,19.559 15.644,20.145 L17.854,22.351 C18.442,22.937 18.442,23.888 17.854,24.474 L15.644,26.680 C15.057,27.266 14.104,27.266 13.517,26.680 L11.307,24.474 C10.719,23.888 10.719,22.937 11.307,22.351 L13.517,20.145 ZM97.740,47.867 C107.711,47.856 107.876,38.174 107.877,37.762 L110.494,37.765 C110.494,37.893 110.346,50.457 97.755,50.478 L97.755,50.481 C97.748,50.481 97.742,50.480 97.735,50.480 C97.731,50.480 97.728,50.481 97.724,50.481 L97.724,50.479 C94.190,50.473 91.289,49.459 89.102,47.462 L90.869,45.535 C92.561,47.081 94.873,47.864 97.740,47.867 Z"/>
</svg>